HIERARCHY
ROOT Hips
{
	OFFSET 0.00000 0.00000 0.00000
	CHANNELS 6 Xposition Yposition Zposition Zrotation Yrotation Xrotation 
	JOINT LHipJoint
	{
		OFFSET 0 0 0
		CHANNELS 3 Zrotation Yrotation Xrotation
		JOINT LeftUpLeg
		{
			OFFSET 1.62329 -1.80800 0.67318
			CHANNELS 3 Zrotation Yrotation Xrotation
			JOINT LeftLeg
			{
				OFFSET 2.57139 -7.06484 0.00000
				CHANNELS 3 Zrotation Yrotation Xrotation
				JOINT LeftFoot
				{
					OFFSET 2.52017 -6.92413 0.00000
					CHANNELS 3 Zrotation Yrotation Xrotation
					JOINT LeftToeBase
					{
						OFFSET 0.23295 -0.64001 2.10214
						CHANNELS 3 Zrotation Yrotation Xrotation
						End Site
						{
							OFFSET 0.00000 -0.00000 1.10139
						}
					}
				}
			}
		}
	}
	JOINT RHipJoint
	{
		OFFSET 0 0 0
		CHANNELS 3 Zrotation Yrotation Xrotation
		JOINT RightUpLeg
		{
			OFFSET -1.48061 -1.80800 0.67318
			CHANNELS 3 Zrotation Yrotation Xrotation
			JOINT RightLeg
			{
				OFFSET -2.63258 -7.23296 0.00000
				CHANNELS 3 Zrotation Yrotation Xrotation
				JOINT RightFoot
				{
					OFFSET -2.54779 -7.00000 0.00000
					CHANNELS 3 Zrotation Yrotation Xrotation
					JOINT RightToeBase
					{
						OFFSET -0.23067 -0.63376 2.12161
						CHANNELS 3 Zrotation Yrotation Xrotation
						End Site
						{
							OFFSET -0.00000 -0.00000 1.11000
						}
					}
				}
			}
		}
	}
	JOINT LowerBack
	{
		OFFSET 0 0 0
		CHANNELS 3 Zrotation Yrotation Xrotation
		JOINT Spine
		{
			OFFSET -0.02108 2.07573 -0.16981
			CHANNELS 3 Zrotation Yrotation Xrotation
			JOINT Spine1
			{
				OFFSET 0.05070 2.08439 -0.03141
				CHANNELS 3 Zrotation Yrotation Xrotation
				JOINT Neck
				{
					OFFSET 0 0 0
					CHANNELS 3 Zrotation Yrotation Xrotation
					JOINT Neck1
					{
						OFFSET -0.10731 1.60408 0.31370
						CHANNELS 3 Zrotation Yrotation Xrotation
						JOINT Head
						{
							OFFSET 0.08411 1.65679 -0.30822
							CHANNELS 3 Zrotation Yrotation Xrotation
							End Site
							{
								OFFSET 0.03911 1.69149 -0.14146
							}
						}
					}
				}
				JOINT LeftShoulder
				{
					OFFSET 0 0 0
					CHANNELS 3 Zrotation Yrotation Xrotation
					JOINT LeftArm
					{
						OFFSET 3.52315 0.73219 -0.54694
						CHANNELS 3 Zrotation Yrotation Xrotation
						JOINT LeftForeArm
						{
							OFFSET 5.32462 -0.00000 -0.00000
							CHANNELS 3 Zrotation Yrotation Xrotation
							JOINT LeftHand
							{
								OFFSET 3.48402 -0.00000 -0.00000
								CHANNELS 3 Zrotation Yrotation Xrotation
								JOINT LeftFingerBase
								{
									OFFSET 0 0 0
									CHANNELS 3 Zrotation Yrotation Xrotation
									JOINT LeftHandIndex1
									{
										OFFSET 0.57248 -0.00000 -0.00000
										CHANNELS 3 Zrotation Yrotation Xrotation
										End Site
										{
											OFFSET 0.46154 -0.00000 -0.00000
										}
									}
								}
								JOINT LThumb
								{
									OFFSET 0 0 0
									CHANNELS 3 Zrotation Yrotation Xrotation
									End Site
									{
										OFFSET 0.46859 -0.00000 0.46859
									}
								}
							}
						}
					}
				}
				JOINT RightShoulder
				{
					OFFSET 0 0 0
					CHANNELS 3 Zrotation Yrotation Xrotation
					JOINT RightArm
					{
						OFFSET -3.41766 0.93592 -0.10019
						CHANNELS 3 Zrotation Yrotation Xrotation
						JOINT RightForeArm
						{
							OFFSET -5.33589 -0.00000 -0.00000
							CHANNELS 3 Zrotation Yrotation Xrotation
							JOINT RightHand
							{
								OFFSET -3.64134 -0.00000 -0.00000
								CHANNELS 3 Zrotation Yrotation Xrotation
								JOINT RightFingerBase
								{
									OFFSET 0 0 0
									CHANNELS 3 Zrotation Yrotation Xrotation
									JOINT RightHandIndex1
									{
										OFFSET -0.73481 -0.00000 -0.00000
										CHANNELS 3 Zrotation Yrotation Xrotation
										End Site
										{
											OFFSET -0.59242 -0.00000 -0.00000
										}
									}
								}
								JOINT RThumb
								{
									OFFSET 0 0 0
									CHANNELS 3 Zrotation Yrotation Xrotation
									End Site
									{
										OFFSET -0.60147 -0.00000 0.60147
									}
								}
							}
						}
					}
				}
			}
		}
	}
}
MOTION
Frames: 11
Frame Time: 0.0363636
0.00 0.00 0.00 0 0 0 0 0 0 -21 0 0 0 0 0 0 0 0 0 0 0 0 0 0 21 0 0 0 0 0 0 0 0 0 0 0 0 0 0 0 0 0 0 0 0 0 0 -16 0 0 21 0 0 11 0 0 0 -8 0 0 0 0 0 0 0 0 0 0 0 0 0 0 0 0 0 0 0 0 8 0 0 0 0 0 0 0 0 0 0 0 0 0 0 0 0 0
0.00 0.00 0.00 3.9551 38.5101 12.0597 0.0000 0.0000 0.0000 -28.5307 0.4953 -10.4884 4.4205 12.6999 38.2551 0.4984 -0.7863 -13.0869 2.0442 -8.9576 -25.6629 0.0000 0.0000 0.0000 19.3682 5.3684 -35.7430 -4.5294 -12.8334 38.7479 -0.7773 -3.8880 -18.5074 -0.5591 -4.7895 13.3093 -0.0323 -1.8122 4.5525 4.9993 -2.3435 2.5347 5.2855 -1.1889 0.2731 -7.9149 5.1889 -13.3475 -1.3470 12.2436 42.0131 3.0394 3.8489 17.4237 -0.0000 -0.0000 0.0000 -91.0087 -0.5796 24.2086 15.8783 -25.3553 -3.5937 -0.0000 -0.0000 7.3829 9.8397 25.8011 4.3171 -7.1250 0.0000 -0.0000 -21.1522 54.8387 -5.2875 -0.0000 -0.0000 0.0000 80.3536 -2.9253 13.9905 -21.5107 32.4197 -6.3215 0.0000 0.0000 15.0539 -24.1793 2.7133 -1.2176 7.1250 -0.0000 -0.0000 1.8506 -27.0048 0.8089
0.00 0.00 0.00 3.3160 35.7463 10.7382 0.0000 0.0000 0.0000 -25.1447 2.4615 -20.5419 8.5118 16.4831 54.3859 -0.0825 -6.3680 -1.7595 2.0286 -8.9254 -25.5622 0.0000 0.0000 0.0000 19.9822 4.8319 -30.8775 -4.0915 -12.2812 36.7342 -0.8736 -1.9810 -18.4778 -0.8337 -5.8248 16.2769 1.3946 -1.8619 5.3278 5.5385 -2.3236 2.9839 5.0628 -1.1647 0.2690 -7.8121 5.7783 -12.4845 -1.3919 13.0622 42.5658 3.1077 4.1873 17.5045 0.0000 0.0000 0.0000 -88.9354 -0.3494 27.0515 19.5702 -30.1211 -5.3140 -0.0000 -0.0000 4.4581 10.8096 25.4320 4.6874 -7.1250 0.0000 -0.0000 -19.9792 54.6774 -4.8960 0.0000 0.0000 0.0000 78.9298 -2.8561 17.5687 -22.7790 33.8463 -7.0148 0.0000 0.0000 15.3685 -26.0501 3.6517 -1.7832 7.1250 -0.0000 -0.0000 0.4342 -25.9164 0.2007
0.00 0.00 0.00 3.5467 9.1041 11.0691 0.0000 0.0000 0.0000 -2.8828 -17.8016 -33.7432 2.4048 9.6627 27.8912 0.0465 0.7414 3.8764 1.2107 -6.9803 -19.6570 0.0000 0.0000 0.0000 10.2174 17.1809 -22.4371 -4.1133 -12.3096 36.8362 -0.8048 8.4449 -16.1805 -0.2390 -3.1463 8.6864 1.3116 0.5473 9.1329 4.0640 0.8592 5.6460 3.3989 0.4078 0.6960 -7.6626 7.7263 -10.9781 -1.2430 15.2349 43.1354 3.3573 5.0078 17.3398 -0.0000 -0.0000 0.0000 -85.6639 -0.4355 25.3916 49.6625 -52.8585 -25.9048 -0.0000 -0.0000 6.2410 11.9187 25.0378 5.1047 -7.1250 0.0000 -0.0000 -18.6597 54.5143 -4.4794 -0.0000 -0.0000 0.0000 73.5441 3.2454 23.7054 -30.3482 41.1900 -11.6383 0.0000 0.0000 20.7511 -24.9105 4.2020 -1.9489 7.1250 -0.0000 -0.0000 1.3043 -25.3484 0.6205
0.00 0.00 0.00 -4.0639 -30.8676 26.0841 0.0000 0.0000 0.0000 -2.9187 -9.0367 -47.3229 3.9665 12.1157 36.1427 0.2070 -2.1464 -8.1176 1.2772 -7.1622 -20.1969 0.0000 0.0000 0.0000 5.9035 10.3799 -49.1620 -7.5824 -15.8033 51.0440 -0.6224 -7.9735 -19.8817 -0.2369 -3.1324 8.6475 -4.2992 0.6623 14.0885 1.4459 0.2564 7.2997 3.9049 -0.0625 -0.2141 -13.6081 10.6466 -8.6948 -3.3680 19.2858 38.9964 3.3573 5.7428 14.2583 0.0000 -0.0000 0.0000 -69.1897 -14.9122 66.0470 38.3233 -47.0445 -17.2018 -0.0000 -0.0000 12.7721 22.9679 9.3007 3.9183 -7.1250 0.0000 -0.0000 -3.4928 40.0418 0.4275 0.0000 -0.0000 0.0000 67.4428 9.7653 55.7812 -49.4675 52.7785 -25.7495 0.0000 0.0000 20.2950 -29.3842 7.1261 -3.9959 7.1250 -0.0000 -0.0000 -1.8905 -21.8165 -1.0531
0.00 0.00 0.00 -3.5693 -36.0706 31.5912 0.0000 0.0000 0.0000 -2.2244 -7.0495 -66.5091 7.5678 15.7920 50.9906 0.2041 -3.5552 -8.0482 1.1632 -6.8467 -19.2619 0.0000 0.0000 0.0000 4.7157 3.5126 -58.0942 -7.5704 -15.7940 51.0001 -1.1426 -2.0170 -21.0135 -0.4212 4.1654 -11.5424 -5.7447 -0.1647 20.9308 2.7304 -1.3356 5.8408 6.5853 -0.6914 -5.1128 -12.9732 9.5702 -4.9490 -7.9636 17.5369 36.2282 1.0098 4.8790 13.0323 -0.0000 0.0000 0.0000 -70.4678 -6.2937 64.3450 50.2887 -53.1113 -26.4048 -0.0000 -0.0000 13.2036 35.8081 9.8123 7.0093 -7.1250 0.0000 -0.0000 7.9217 41.8855 -0.6129 -0.0000 0.0000 0.0000 64.4505 4.0106 63.7400 -60.4934 56.4400 -34.7520 0.0000 0.0000 33.6645 -31.8336 5.4447 -3.3713 7.1250 -0.0000 -0.0000 -3.8042 -23.5812 -1.9688
0.00 0.00 0.00 -1.9626 -38.6434 33.3760 0.0000 0.0000 0.0000 -0.4902 -7.9233 -78.0469 10.4548 17.6578 60.9978 0.3319 -1.9897 -10.3731 1.1166 -6.7128 -18.8673 0.0000 0.0000 0.0000 1.2794 2.4830 -71.6458 -10.8043 -17.8380 62.1445 -1.0234 2.1208 -18.5273 -0.7570 5.5569 -15.5041 -5.4291 0.1473 26.0344 3.3785 -1.0559 5.0397 7.2905 -0.3863 -8.6609 -10.6867 7.7405 0.6596 -10.5220 13.8127 34.3475 -0.9439 3.6583 11.5111 -0.0000 0.0000 0.0000 -66.6702 0.0661 66.9162 69.0979 -58.2831 -42.0026 -0.0000 -0.0000 17.0067 47.7266 13.3138 14.2148 -7.1250 0.0000 -0.0000 20.0330 48.2947 1.6914 -0.0000 0.0000 0.0000 59.5718 -1.8804 63.7473 -80.3531 59.6454 -51.6555 0.0000 0.0000 37.7040 -50.7798 -0.6555 0.8031 7.1250 -0.0000 -0.0000 -19.0002 -30.6574 -7.0040
0.00 0.00 0.00 -1.6657 -40.2104 33.7900 0.0000 0.0000 0.0000 1.0215 -7.5646 -84.5427 12.6604 18.6561 68.0675 0.3990 -1.4853 -11.5074 1.0245 -6.4387 -18.0627 0.0000 0.0000 0.0000 -0.9635 2.7339 -78.9753 -13.2000 -18.8532 69.7454 -1.0013 3.5535 -18.0551 -0.8578 5.9064 -16.5131 -3.5155 -0.1883 29.6302 2.9926 -1.1135 4.7687 5.9105 -0.3879 -10.8397 -9.8896 7.0011 2.9932 -9.7615 11.9006 33.6306 -1.0320 3.1142 10.6740 0.0000 -0.0000 0.0000 -62.7237 4.2717 67.3474 83.2426 -59.8268 -54.1513 -0.0000 -0.0000 19.0814 53.4643 15.3142 19.6192 -7.1250 0.0000 -0.0000 27.4267 52.5089 5.3983 0.0000 -0.0000 0.0000 57.5292 -5.3522 64.9496 -98.8438 59.7024 -67.6513 0.0000 0.0000 40.0275 -53.5487 -1.0544 1.4271 7.1250 -0.0000 -0.0000 -21.2415 -31.2486 -7.6112
0.00 0.00 0.00 -0.3134 -41.4655 32.1618 0.0000 0.0000 0.0000 2.0549 -8.0128 -89.3778 14.8960 19.3636 74.9233 0.4613 -1.4882 -12.3995 0.6076 -4.9894 -13.8783 0.0000 0.0000 0.0000 -3.6420 1.9042 -84.5371 -15.5298 -19.5140 76.8275 -0.9389 4.8245 -17.3302 -0.9767 6.2913 -17.6320 -2.1000 -0.6827 32.8364 2.6326 -1.4294 4.5397 4.5328 -0.6146 -11.7857 -8.7830 6.3158 4.5560 -9.8840 10.5555 33.0896 -1.3970 2.7177 10.1780 0.0000 0.0000 0.0000 -59.6957 8.3424 66.9487 96.2753 -59.8507 -65.4319 -0.0000 -0.0000 21.6365 57.9073 15.9695 23.6876 -7.1250 0.0000 -0.0000 33.8247 54.8677 8.9581 0.0000 0.0000 0.0000 56.6276 -9.4680 65.1798 -116.3416 57.2085 -82.5987 0.0000 0.0000 40.5466 -55.2298 -1.0702 1.5411 7.1250 -0.0000 -0.0000 -22.5259 -31.2703 -8.1272
0.00 0.00 0.00 -2.9998 -45.3922 31.0201 0.0000 0.0000 0.0000 5.0051 -4.1967 -93.3486 18.2719 19.9282 84.9416 0.6488 -2.1504 -14.6339 0.4498 -4.3028 -11.9302 0.0000 0.0000 0.0000 -4.8399 4.7334 -89.4188 -18.2148 -19.9234 84.7740 -0.8509 6.1028 -16.4468 -1.1496 6.8080 -19.1479 -2.4537 1.2575 35.8714 3.3891 0.8036 5.7244 4.6592 0.3305 -11.8399 -7.7852 5.2461 4.9500 -10.7158 9.2262 33.6376 -1.9696 2.1385 10.3704 -0.0000 -0.0000 0.0000 -57.7864 11.2422 66.6938 107.6759 -58.7859 -75.2453 -0.0000 -0.0000 25.1692 60.7793 16.6235 27.0875 -7.1250 0.0000 -0.0000 38.8869 56.8423 12.5830 -0.0000 -0.0000 0.0000 54.9167 -14.2650 64.8779 -132.0181 52.1484 -95.4286 0.0000 0.0000 43.6572 -57.4990 0.7288 -1.1438 7.1250 -0.0000 -0.0000 -23.4708 -28.2036 -10.4180
0.00 0.00 0.00 -2.6006 -47.5411 23.0895 0.0000 0.0000 0.0000 6.9472 -2.3786 -97.7675 23.4549 19.7114 100.1482 0.8742 -3.6776 -16.8123 0.4441 -4.2760 -11.8546 0.0000 0.0000 0.0000 -8.2789 2.6835 -94.2611 -22.8499 -19.8041 98.3588 -0.5593 9.9424 -14.0730 -0.9363 6.1636 -17.2599 -0.7292 1.2593 37.2842 3.6794 1.2396 7.9049 3.8635 0.3415 -9.7849 -8.2995 4.1171 3.5548 -8.7915 7.4106 32.6560 -1.2404 1.4387 10.0489 0.0000 0.0000 0.0000 -56.0498 11.2589 65.1897 115.3211 -57.4330 -81.7397 -0.0000 -0.0000 28.4760 64.1365 17.7097 32.1074 -7.1250 0.0000 -0.0000 46.4545 59.6425 19.0505 0.0000 0.0000 0.0000 55.3245 -15.0831 62.9266 -141.3821 47.2294 -102.5822 0.0000 0.0000 49.1426 -58.3512 0.1863 -0.3022 7.1250 -0.0000 -0.0000 -24.3087 -29.0864 -10.2932
